<?xml version="1.0" standalone="no"?>
<!DOCTYPE svg PUBLIC "-//W3C//DTD SVG 20010904//EN"
 "http://www.w3.org/TR/2001/REC-SVG-20010904/DTD/svg10.dtd">
<svg version="1.0" xmlns="http://www.w3.org/2000/svg"
 width="784.000000pt" height="784.000000pt" viewBox="0 0 784.000000 784.000000"
 preserveAspectRatio="xMidYMid meet">
<metadata>
Created by potrace 1.14, written by Peter Selinger 2001-2017
</metadata>
<g transform="translate(0.000000,784.000000) scale(0.100000,-0.100000)"
fill="#000000" stroke="none">
<path d="M3164 7818 c-3 -4 -9 -6 -14 -3 -14 9 -163 -34 -229 -66 -94 -47
-150 -99 -251 -234 -86 -114 -153 -181 -245 -240 -76 -49 -195 -104 -260 -120
-16 -4 -39 -9 -50 -12 -11 -3 -105 -6 -210 -8 -166 -1 -198 -4 -256 -24 -70
-23 -185 -94 -231 -142 -16 -16 -28 -27 -28 -25 0 3 -13 -9 -29 -24 -96 -97
-153 -204 -180 -340 -22 -111 -27 -129 -40 -162 -6 -16 -8 -28 -5 -28 4 0 1
-7 -6 -15 -7 -8 -9 -15 -6 -15 4 0 1 -10 -6 -22 -6 -13 -13 -29 -14 -35 -3
-17 -100 -177 -127 -211 -24 -29 -157 -161 -179 -177 -8 -5 -23 -16 -34 -22
-18 -12 -37 -23 -164 -94 -30 -17 -62 -37 -71 -45 -8 -8 -19 -14 -23 -14 -27
0 -148 -156 -190 -245 -10 -22 -22 -47 -26 -56 -31 -60 -57 -181 -58 -264 0
-49 2 -94 6 -100 4 -5 8 -18 9 -27 1 -9 16 -64 32 -121 40 -142 50 -243 36
-362 -10 -90 -17 -129 -25 -151 -5 -13 -6 -24 -3 -24 4 0 2 -5 -5 -12 -7 -7
-12 -19 -12 -28 0 -28 -66 -155 -137 -261 -74 -112 -84 -130 -109 -199 -23
-61 -27 -276 -7 -368 8 -37 16 -76 19 -87 6 -32 75 -165 85 -165 5 0 9 -5 9
-10 0 -6 29 -41 64 -78 112 -117 125 -132 171 -202 53 -79 92 -170 125 -290
19 -68 24 -110 24 -210 0 -119 -12 -297 -20 -312 -3 -4 0 -10 6 -13 7 -5 8
-11 1 -19 -6 -7 -6 -17 -1 -26 6 -8 10 -27 10 -41 0 -40 51 -158 106 -246 93
-150 223 -252 374 -294 25 -7 47 -13 50 -14 73 -20 108 -33 173 -62 42 -20 77
-39 77 -43 0 -4 14 -13 31 -21 44 -18 198 -172 245 -244 48 -75 72 -125 119
-253 20 -56 41 -102 46 -102 5 0 9 -7 9 -16 0 -48 138 -175 268 -246 135 -74
201 -92 340 -93 67 -1 125 1 127 5 11 17 317 19 350 1 5 -3 17 -6 26 -6 17 -1
105 -24 129 -33 8 -3 17 -6 20 -7 26 -9 71 -29 100 -44 85 -44 122 -69 225
-150 194 -153 276 -183 508 -187 98 -1 147 2 147 9 0 6 3 8 6 5 13 -14 171 50
209 84 8 7 29 24 46 38 18 14 46 37 63 51 104 87 245 159 361 185 91 20 298
26 365 10 19 -5 40 -9 45 -11 6 -1 17 -5 25 -8 8 -4 27 -8 42 -11 15 -3 32 -7
38 -11 37 -23 278 -28 304 -6 9 8 16 11 16 8 0 -10 69 17 163 64 48 23 87 46
87 51 0 4 5 8 11 8 13 0 43 26 106 88 44 45 74 92 163 255 29 53 57 97 62 97
4 0 8 7 8 16 0 21 174 191 246 239 32 22 61 43 62 48 2 4 8 7 13 7 6 0 38 13
72 29 34 16 89 36 122 45 192 50 260 84 353 177 79 79 76 77 128 154 48 72 97
170 110 220 15 60 16 68 29 315 6 117 9 143 25 200 7 25 14 52 15 61 2 10 11
31 19 48 9 17 14 31 10 31 -4 0 -1 7 6 15 7 8 10 15 7 15 -3 0 14 36 39 80 24
44 44 85 44 90 0 6 4 10 9 10 4 0 20 17 33 38 14 20 75 87 135 147 113 113
154 167 190 245 26 56 43 117 35 124 -3 3 -1 6 5 6 5 0 10 6 10 13 1 6 4 32 9
57 4 25 8 95 8 155 1 92 -3 121 -23 178 -14 37 -28 67 -33 67 -4 0 -8 4 -8 10
0 5 -24 47 -54 93 -113 175 -154 319 -150 522 2 116 9 156 45 268 16 51 29 98
29 105 0 6 4 12 10 12 5 0 9 3 8 8 -1 4 4 34 12 67 18 81 17 172 -4 270 -15
74 -86 247 -113 278 -9 9 -13 17 -10 17 23 0 -115 135 -189 185 -193 129 -263
194 -352 323 -76 110 -136 248 -148 342 -2 19 -6 49 -8 65 -5 28 -13 89 -20
145 -4 31 -13 57 -32 93 -8 15 -12 27 -9 27 18 0 -85 138 -156 210 -98 97
-223 170 -319 186 -14 2 -56 6 -95 10 -154 12 -193 18 -260 36 -22 7 -43 12
-47 14 -5 1 -10 3 -13 4 -3 1 -8 3 -12 4 -33 9 -138 65 -206 110 -119 79 -162
123 -305 316 -85 114 -217 211 -337 246 -48 14 -127 34 -160 40 -82 14 -223 6
-263 -16 -16 -8 -50 -22 -62 -24 -3 -1 -30 -13 -60 -27 -30 -14 -58 -26 -63
-27 -4 -1 -20 -8 -35 -16 -101 -51 -339 -69 -492 -36 -98 21 -136 36 -320 128
-87 44 -158 73 -200 81 -71 13 -208 13 -216 -1z"/>
</g>
</svg>
