<?xml version="1.0" encoding="UTF-8" standalone="no"?>
<!-- Created with Inkscape (http://www.inkscape.org/) -->

<svg
   width="207.44597mm"
   height="206.82207mm"
   viewBox="0 0 207.4459 206.822"
   version="1.1"
   id="svg1"
   xmlns:inkscape="http://www.inkscape.org/namespaces/inkscape"
   xmlns:sodipodi="http://sodipodi.sourceforge.net/DTD/sodipodi-0.dtd"
   xmlns="http://www.w3.org/2000/svg"
   xmlns:svg="http://www.w3.org/2000/svg">
  <sodipodi:namedview
     id="namedview1"
     pagecolor="#ffffff"
     bordercolor="#000000"
     borderopacity="0.25"
     inkscape:showpageshadow="2"
     inkscape:pageopacity="0.0"
     inkscape:pagecheckerboard="0"
     inkscape:deskcolor="#d1d1d1"
     inkscape:document-units="mm" />
  <defs
     id="defs1" />
  <g
     inkscape:label="Layer 1"
     inkscape:groupmode="layer"
     id="layer1"
     transform="translate(-0.10553288,-44.402136)">
    <path
       sodipodi:type="star"
       style="fill:#ffffff;stroke-width:0.264583"
       id="path1"
       inkscape:flatsided="false"
       sodipodi:sides="13"
       sodipodi:cx="41.645756"
       sodipodi:cy="64.660515"
       sodipodi:r1="117.01376"
       sodipodi:r2="125.82125"
       sodipodi:arg1="0.87791678"
       sodipodi:arg2="1.1195778"
       inkscape:rounded="0.5"
       inkscape:randomized="0.005"
       d="m 116.84238,155.16797 c -11.73864,9.76214 -6.75317,16.32598 -20.556861,22.95311 -13.803686,6.62713 -15.250071,-2.72306 -30.172012,0.44082 -14.921946,3.16387 -12.962027,12.55212 -28.203182,12.16792 -15.24115,-0.3842 -13.776178,-9.05251 -28.4757994,-13.08622 -14.6996261,-4.03371 -16.372249,3.74669 -29.7089086,-3.69949 -13.336655,-7.44618 -6.828948,-13.96282 -17.894064,-24.44164 -11.065119,-10.47883 -17.802205,-3.65785 -26.116371,-16.4859 -8.314164,-12.82804 -0.02635,-16.11071 -4.899667,-30.57124 -4.873316,-14.460537 -13.517782,-11.871475 -14.851269,-27.122037 -1.333486,-15.250557 7.533305,-13.645062 9.779357,-28.781418 2.246053,-15.136361 -6.399237,-16.00835 -0.448048,-30.03763 5.951187,-14.0292743 13.404076,-9.0461975 22.403171,-21.3477067 8.999098,-12.3015133 2.206728,-17.8281813 13.917625,-27.6516133 11.710893,-9.823428 15.033939,-0.850165 28.7798358,-7.570531 13.7459021,-6.720369 9.74414429,-15.678908 24.6876162,-18.943285 14.943467,-3.264376 15.216021,6.357707 30.507448,6.96832 15.291431,0.610613 15.002021,-8.597215 29.763639,-4.530643 14.761612,4.066571 11.218651,12.509764 24.54898,19.971457 13.33033,7.461696 17.13548,-0.457595 28.14706,10.097216 11.01159,10.554808 3.24693,14.561377 11.44437,27.4401796 8.19744,12.8788074 15.95711,8.8950761 20.94201,23.3212404 4.98491,14.426159 -3.57622,15.20002 -2.10761,30.410292 1.46861,15.210278 10.65922,13.512181 8.29008,28.621913 -2.36914,15.109727 -10.73027,12.634367 -16.5151,26.743996 -5.78483,14.10963 1.28599,17.54388 -7.7443,29.88305 -9.03027,12.33917 -13.77935,5.48771 -25.518,15.24984 z"
       inkscape:transform-center-x="-0.40204026"
       inkscape:transform-center-y="-1.1098953"
       transform="matrix(0.82588716,0,0,0.82588716,69.621796,93.693437)" />
  </g>
</svg>
