<svg width="13" height="16" viewBox="0 0 13 16" fill="none" xmlns="http://www.w3.org/2000/svg">
<path fill-rule="evenodd" clip-rule="evenodd" d="M6.92277 1.1192C10.4784 4.2239 12.2857 6.93481 12.2857 9.31772C12.2857 12.6923 9.65184 15.1034 6.49995 15.1034C3.34805 15.1034 0.714233 12.6923 0.714233 9.31772C0.714233 6.93481 2.5215 4.2239 6.07712 1.1192L6.49995 0.75L6.92277 1.1192ZM1.99994 9.31774C1.99994 11.9556 4.03401 13.8177 6.49994 13.8177C8.96586 13.8177 10.9999 11.9556 10.9999 9.31774C10.9999 7.48609 9.51712 5.18189 6.49994 2.46269C3.48276 5.18189 1.99994 7.48609 1.99994 9.31774ZM6.49997 11.8892V13.1749C8.63021 13.1749 10.3571 11.448 10.3571 9.31775H9.07139C9.07139 10.7379 7.92013 11.8892 6.49997 11.8892Z" fill="#0D192D"/>
</svg>
