<svg width="216" height="16" viewBox="0 0 216 16" fill="none" xmlns="http://www.w3.org/2000/svg">
<path d="M11.08 3.52C12.136 3.52 12.9627 3.824 13.56 4.432C14.168 5.04 14.472 5.936 14.472 7.12V12H13.336V7.232C13.336 6.35733 13.1227 5.69067 12.696 5.232C12.28 4.77333 11.688 4.544 10.92 4.544C10.0453 4.544 9.35733 4.816 8.856 5.36C8.35467 5.89333 8.104 6.63467 8.104 7.584V12H6.968V7.232C6.968 6.35733 6.75467 5.69067 6.328 5.232C5.912 4.77333 5.31467 4.544 4.536 4.544C3.672 4.544 2.984 4.816 2.472 5.36C1.97067 5.89333 1.72 6.63467 1.72 7.584V12H0.584V3.584H1.672V5.12C1.97067 4.608 2.38667 4.21333 2.92 3.936C3.45333 3.65867 4.06667 3.52 4.76 3.52C5.464 3.52 6.072 3.66933 6.584 3.968C7.10667 4.26667 7.496 4.70933 7.752 5.296C8.06133 4.74133 8.504 4.30933 9.08 4C9.66667 3.68 10.3333 3.52 11.08 3.52ZM21.8888 3.52C22.6781 3.52 23.3928 3.70133 24.0328 4.064C24.6728 4.416 25.1741 4.91733 25.5368 5.568C25.8994 6.21867 26.0808 6.96 26.0808 7.792C26.0808 8.63467 25.8994 9.38133 25.5368 10.032C25.1741 10.6827 24.6728 11.1893 24.0328 11.552C23.4034 11.904 22.6888 12.08 21.8888 12.08C21.2061 12.08 20.5874 11.9413 20.0328 11.664C19.4888 11.376 19.0408 10.96 18.6888 10.416V15.104H17.5528V3.584H18.6408V5.248C18.9821 4.69333 19.4301 4.26667 19.9848 3.968C20.5501 3.66933 21.1848 3.52 21.8888 3.52ZM21.8088 11.072C22.3954 11.072 22.9288 10.9387 23.4088 10.672C23.8888 10.3947 24.2621 10.0053 24.5288 9.504C24.8061 9.00267 24.9448 8.432 24.9448 7.792C24.9448 7.152 24.8061 6.58667 24.5288 6.096C24.2621 5.59467 23.8888 5.20533 23.4088 4.928C22.9288 4.65067 22.3954 4.512 21.8088 4.512C21.2114 4.512 20.6728 4.65067 20.1927 4.928C19.7234 5.20533 19.3501 5.59467 19.0728 6.096C18.8061 6.58667 18.6728 7.152 18.6728 7.792C18.6728 8.432 18.8061 9.00267 19.0728 9.504C19.3501 10.0053 19.7234 10.3947 20.1927 10.672C20.6728 10.9387 21.2114 11.072 21.8088 11.072ZM36.1885 3.584V10.976C36.1885 12.4053 35.8365 13.4613 35.1325 14.144C34.4392 14.8373 33.3885 15.184 31.9805 15.184C31.2018 15.184 30.4605 15.0667 29.7565 14.832C29.0632 14.608 28.4978 14.2933 28.0605 13.888L28.6365 13.024C29.0418 13.3867 29.5325 13.6693 30.1085 13.872C30.6952 14.0747 31.3085 14.176 31.9485 14.176C33.0152 14.176 33.7992 13.9253 34.3005 13.424C34.8018 12.9333 35.0525 12.1653 35.0525 11.12V10.048C34.7005 10.5813 34.2365 10.9867 33.6605 11.264C33.0952 11.5413 32.4658 11.68 31.7725 11.68C30.9832 11.68 30.2632 11.5093 29.6125 11.168C28.9725 10.816 28.4658 10.3307 28.0925 9.712C27.7298 9.08267 27.5485 8.37333 27.5485 7.584C27.5485 6.79467 27.7298 6.09067 28.0925 5.472C28.4658 4.85333 28.9725 4.37333 29.6125 4.032C30.2525 3.69067 30.9725 3.52 31.7725 3.52C32.4872 3.52 33.1325 3.664 33.7085 3.952C34.2845 4.24 34.7485 4.656 35.1005 5.2V3.584H36.1885ZM31.8845 10.672C32.4925 10.672 33.0418 10.544 33.5325 10.288C34.0232 10.0213 34.4018 9.65333 34.6685 9.184C34.9458 8.71467 35.0845 8.18133 35.0845 7.584C35.0845 6.98667 34.9458 6.45867 34.6685 6C34.4018 5.53067 34.0232 5.168 33.5325 4.912C33.0525 4.64533 32.5032 4.512 31.8845 4.512C31.2765 4.512 30.7272 4.64 30.2365 4.896C29.7565 5.152 29.3778 5.51467 29.1005 5.984C28.8338 6.45333 28.7005 6.98667 28.7005 7.584C28.7005 8.18133 28.8338 8.71467 29.1005 9.184C29.3778 9.65333 29.7565 10.0213 30.2365 10.288C30.7272 10.544 31.2765 10.672 31.8845 10.672ZM40.4533 5.232C40.7199 4.66667 41.1146 4.24 41.6373 3.952C42.1706 3.664 42.8266 3.52 43.6053 3.52V4.624L43.3333 4.608C42.4479 4.608 41.7546 4.88 41.2533 5.424C40.7519 5.968 40.5013 6.73067 40.5013 7.712V12H39.3653V3.584H40.4533V5.232ZM48.5905 3.52C49.6892 3.52 50.5318 3.79733 51.1185 4.352C51.7052 4.896 51.9985 5.70667 51.9985 6.784V12H50.9105V10.688C50.6545 11.1253 50.2758 11.4667 49.7745 11.712C49.2838 11.9573 48.6972 12.08 48.0145 12.08C47.0758 12.08 46.3292 11.856 45.7745 11.408C45.2198 10.96 44.9425 10.368 44.9425 9.632C44.9425 8.91733 45.1985 8.34133 45.7105 7.904C46.2332 7.46667 47.0598 7.248 48.1905 7.248H50.8625V6.736C50.8625 6.01067 50.6598 5.46133 50.2545 5.088C49.8492 4.704 49.2572 4.512 48.4785 4.512C47.9452 4.512 47.4332 4.60267 46.9425 4.784C46.4518 4.95467 46.0305 5.19467 45.6785 5.504L45.1665 4.656C45.5932 4.29333 46.1052 4.016 46.7025 3.824C47.2998 3.62133 47.9292 3.52 48.5905 3.52ZM48.1905 11.184C48.8305 11.184 49.3798 11.04 49.8385 10.752C50.2972 10.4533 50.6385 10.0267 50.8625 9.472V8.096H48.2225C46.7825 8.096 46.0625 8.59733 46.0625 9.6C46.0625 10.0907 46.2492 10.48 46.6225 10.768C46.9958 11.0453 47.5185 11.184 48.1905 11.184ZM59.372 3.52C60.428 3.52 61.2653 3.82933 61.884 4.448C62.5133 5.056 62.828 5.94667 62.828 7.12V12H61.692V7.232C61.692 6.35733 61.4733 5.69067 61.036 5.232C60.5987 4.77333 59.9747 4.544 59.164 4.544C58.2573 4.544 57.5373 4.816 57.004 5.36C56.4813 5.89333 56.22 6.63467 56.22 7.584V12H55.084V0.127999H56.22V5.056C56.5293 4.56533 56.956 4.18667 57.5 3.92C58.044 3.65333 58.668 3.52 59.372 3.52ZM68.8561 3.52C69.9548 3.52 70.7975 3.79733 71.3841 4.352C71.9708 4.896 72.2641 5.70667 72.2641 6.784V12H71.1761V10.688C70.9201 11.1253 70.5415 11.4667 70.0401 11.712C69.5495 11.9573 68.9628 12.08 68.2801 12.08C67.3415 12.08 66.5948 11.856 66.0401 11.408C65.4855 10.96 65.2081 10.368 65.2081 9.632C65.2081 8.91733 65.4641 8.34133 65.9761 7.904C66.4988 7.46667 67.3255 7.248 68.4561 7.248H71.1281V6.736C71.1281 6.01067 70.9255 5.46133 70.5201 5.088C70.1148 4.704 69.5228 4.512 68.7441 4.512C68.2108 4.512 67.6988 4.60267 67.2081 4.784C66.7175 4.95467 66.2961 5.19467 65.9441 5.504L65.4321 4.656C65.8588 4.29333 66.3708 4.016 66.9681 3.824C67.5655 3.62133 68.1948 3.52 68.8561 3.52ZM68.4561 11.184C69.0961 11.184 69.6455 11.04 70.1041 10.752C70.5628 10.4533 70.9041 10.0267 71.1281 9.472V8.096H68.4881C67.0481 8.096 66.3281 8.59733 66.3281 9.6C66.3281 10.0907 66.5148 10.48 66.8881 10.768C67.2615 11.0453 67.7841 11.184 68.4561 11.184ZM85.8456 3.52C86.9016 3.52 87.7283 3.824 88.3256 4.432C88.9336 5.04 89.2376 5.936 89.2376 7.12V12H88.1016V7.232C88.1016 6.35733 87.8883 5.69067 87.4616 5.232C87.0456 4.77333 86.4536 4.544 85.6856 4.544C84.811 4.544 84.123 4.816 83.6216 5.36C83.1203 5.89333 82.8696 6.63467 82.8696 7.584V12H81.7336V7.232C81.7336 6.35733 81.5203 5.69067 81.0936 5.232C80.6776 4.77333 80.0803 4.544 79.3016 4.544C78.4376 4.544 77.7496 4.816 77.2376 5.36C76.7363 5.89333 76.4856 6.63467 76.4856 7.584V12H75.3496V3.584H76.4376V5.12C76.7363 4.608 77.1523 4.21333 77.6856 3.936C78.219 3.65867 78.8323 3.52 79.5256 3.52C80.2296 3.52 80.8376 3.66933 81.3496 3.968C81.8723 4.26667 82.2616 4.70933 82.5176 5.296C82.827 4.74133 83.2696 4.30933 83.8456 4C84.4323 3.68 85.099 3.52 85.8456 3.52ZM94.82 0.704C96.3027 0.704 97.4387 1.19467 98.228 2.176C99.0173 3.14667 99.412 4.52267 99.412 6.304C99.412 7.552 99.1987 8.608 98.772 9.472C98.3453 10.336 97.748 10.992 96.98 11.44C96.212 11.8773 95.316 12.096 94.292 12.096C93.1827 12.096 92.2973 11.8933 91.636 11.488L92.1 10.56C92.6333 10.912 93.3587 11.088 94.276 11.088C95.5133 11.088 96.484 10.6987 97.188 9.92C97.892 9.13067 98.244 7.98933 98.244 6.496C98.244 6.21867 98.228 5.91467 98.196 5.584C97.9187 6.192 97.476 6.66667 96.868 7.008C96.26 7.33867 95.5613 7.504 94.772 7.504C94.036 7.504 93.38 7.36533 92.804 7.088C92.2387 6.81067 91.796 6.42133 91.476 5.92C91.156 5.408 90.996 4.816 90.996 4.144C90.996 3.46133 91.1613 2.85867 91.492 2.336C91.8227 1.81333 92.276 1.41333 92.852 1.136C93.4387 0.848 94.0947 0.704 94.82 0.704ZM94.948 6.528C95.5133 6.528 96.0093 6.42133 96.436 6.208C96.8733 5.99467 97.2147 5.70133 97.46 5.328C97.7053 4.95467 97.828 4.53867 97.828 4.08C97.828 3.65333 97.7107 3.25867 97.476 2.896C97.252 2.53333 96.916 2.24 96.468 2.016C96.02 1.792 95.4867 1.68 94.868 1.68C94.0573 1.68 93.396 1.904 92.884 2.352C92.3827 2.78933 92.132 3.376 92.132 4.112C92.132 4.848 92.3827 5.43467 92.884 5.872C93.396 6.30933 94.084 6.528 94.948 6.528ZM104.155 0.799999V12H103.003V1.824H100.363V0.799999H104.155ZM114.736 0.799999V1.616L110.048 12H108.8L113.408 1.824H107.648V3.92H106.512V0.799999H114.736ZM123.429 0.704C124.858 0.704 126.133 1.00267 127.253 1.6C128.384 2.18667 129.264 3.01867 129.893 4.096C130.522 5.16267 130.837 6.384 130.837 7.76C130.837 9.11467 130.602 10.176 130.133 10.944C129.664 11.7013 129.013 12.08 128.181 12.08C127.658 12.08 127.232 11.9253 126.901 11.616C126.581 11.3067 126.405 10.88 126.373 10.336C126.053 10.8907 125.616 11.3227 125.061 11.632C124.506 11.9307 123.877 12.08 123.173 12.08C122.426 12.08 121.749 11.904 121.141 11.552C120.544 11.1893 120.069 10.6933 119.717 10.064C119.376 9.43467 119.205 8.72533 119.205 7.936C119.205 7.14667 119.376 6.44267 119.717 5.824C120.069 5.19467 120.544 4.704 121.141 4.352C121.749 4 122.426 3.824 123.173 3.824C123.856 3.824 124.469 3.97333 125.013 4.272C125.568 4.56 126.01 4.97067 126.341 5.504V3.888H127.381V9.952C127.381 10.3787 127.472 10.688 127.653 10.88C127.834 11.072 128.074 11.168 128.373 11.168C128.874 11.168 129.269 10.8693 129.557 10.272C129.856 9.67467 130.005 8.84267 130.005 7.776C130.005 6.53867 129.728 5.45067 129.173 4.512C128.618 3.56267 127.84 2.82667 126.837 2.304C125.845 1.78133 124.709 1.52 123.429 1.52C122.138 1.52 120.992 1.792 119.989 2.336C118.997 2.86933 118.224 3.62667 117.669 4.608C117.114 5.57867 116.837 6.688 116.837 7.936C116.837 9.184 117.109 10.2987 117.653 11.28C118.208 12.2613 118.976 13.024 119.957 13.568C120.949 14.112 122.085 14.384 123.365 14.384C123.866 14.384 124.389 14.3253 124.933 14.208C125.488 14.0907 125.989 13.9147 126.437 13.68L126.709 14.464C126.25 14.6987 125.717 14.88 125.109 15.008C124.512 15.136 123.93 15.2 123.365 15.2C121.914 15.2 120.629 14.8907 119.509 14.272C118.389 13.6533 117.514 12.7947 116.885 11.696C116.266 10.5867 115.957 9.33333 115.957 7.936C115.957 6.528 116.272 5.28 116.901 4.192C117.53 3.09333 118.41 2.24 119.541 1.632C120.682 1.01333 121.978 0.704 123.429 0.704ZM123.317 11.152C123.893 11.152 124.41 11.0187 124.869 10.752C125.328 10.4853 125.69 10.112 125.957 9.632C126.224 9.14133 126.357 8.576 126.357 7.936C126.357 7.30667 126.224 6.752 125.957 6.272C125.69 5.78133 125.328 5.408 124.869 5.152C124.41 4.88533 123.893 4.752 123.317 4.752C122.73 4.752 122.202 4.88533 121.733 5.152C121.274 5.41867 120.912 5.792 120.645 6.272C120.389 6.752 120.261 7.30667 120.261 7.936C120.261 8.56533 120.389 9.12533 120.645 9.616C120.912 10.096 121.274 10.4747 121.733 10.752C122.202 11.0187 122.73 11.152 123.317 11.152ZM141.032 3.584V10.976C141.032 12.4053 140.68 13.4613 139.976 14.144C139.283 14.8373 138.232 15.184 136.824 15.184C136.046 15.184 135.304 15.0667 134.6 14.832C133.907 14.608 133.342 14.2933 132.904 13.888L133.48 13.024C133.886 13.3867 134.376 13.6693 134.952 13.872C135.539 14.0747 136.152 14.176 136.792 14.176C137.859 14.176 138.643 13.9253 139.144 13.424C139.646 12.9333 139.896 12.1653 139.896 11.12V10.048C139.544 10.5813 139.08 10.9867 138.504 11.264C137.939 11.5413 137.31 11.68 136.616 11.68C135.827 11.68 135.107 11.5093 134.456 11.168C133.816 10.816 133.31 10.3307 132.936 9.712C132.574 9.08267 132.392 8.37333 132.392 7.584C132.392 6.79467 132.574 6.09067 132.936 5.472C133.31 4.85333 133.816 4.37333 134.456 4.032C135.096 3.69067 135.816 3.52 136.616 3.52C137.331 3.52 137.976 3.664 138.552 3.952C139.128 4.24 139.592 4.656 139.944 5.2V3.584H141.032ZM136.728 10.672C137.336 10.672 137.886 10.544 138.376 10.288C138.867 10.0213 139.246 9.65333 139.512 9.184C139.79 8.71467 139.928 8.18133 139.928 7.584C139.928 6.98667 139.79 6.45867 139.512 6C139.246 5.53067 138.867 5.168 138.376 4.912C137.896 4.64533 137.347 4.512 136.728 4.512C136.12 4.512 135.571 4.64 135.08 4.896C134.6 5.152 134.222 5.51467 133.944 5.984C133.678 6.45333 133.544 6.98667 133.544 7.584C133.544 8.18133 133.678 8.71467 133.944 9.184C134.222 9.65333 134.6 10.0213 135.08 10.288C135.571 10.544 136.12 10.672 136.728 10.672ZM154.705 3.52C155.761 3.52 156.588 3.824 157.185 4.432C157.793 5.04 158.097 5.936 158.097 7.12V12H156.961V7.232C156.961 6.35733 156.748 5.69067 156.321 5.232C155.905 4.77333 155.313 4.544 154.545 4.544C153.67 4.544 152.982 4.816 152.481 5.36C151.98 5.89333 151.729 6.63467 151.729 7.584V12H150.593V7.232C150.593 6.35733 150.38 5.69067 149.953 5.232C149.537 4.77333 148.94 4.544 148.161 4.544C147.297 4.544 146.609 4.816 146.097 5.36C145.596 5.89333 145.345 6.63467 145.345 7.584V12H144.209V3.584H145.297V5.12C145.596 4.608 146.012 4.21333 146.545 3.936C147.078 3.65867 147.692 3.52 148.385 3.52C149.089 3.52 149.697 3.66933 150.209 3.968C150.732 4.26667 151.121 4.70933 151.377 5.296C151.686 4.74133 152.129 4.30933 152.705 4C153.292 3.68 153.958 3.52 154.705 3.52ZM164.122 3.52C165.22 3.52 166.063 3.79733 166.65 4.352C167.236 4.896 167.53 5.70667 167.53 6.784V12H166.442V10.688C166.186 11.1253 165.807 11.4667 165.306 11.712C164.815 11.9573 164.228 12.08 163.546 12.08C162.607 12.08 161.86 11.856 161.306 11.408C160.751 10.96 160.474 10.368 160.474 9.632C160.474 8.91733 160.73 8.34133 161.242 7.904C161.764 7.46667 162.591 7.248 163.722 7.248H166.394V6.736C166.394 6.01067 166.191 5.46133 165.786 5.088C165.38 4.704 164.788 4.512 164.01 4.512C163.476 4.512 162.964 4.60267 162.474 4.784C161.983 4.95467 161.562 5.19467 161.21 5.504L160.698 4.656C161.124 4.29333 161.636 4.016 162.234 3.824C162.831 3.62133 163.46 3.52 164.122 3.52ZM163.722 11.184C164.362 11.184 164.911 11.04 165.37 10.752C165.828 10.4533 166.17 10.0267 166.394 9.472V8.096H163.754C162.314 8.096 161.594 8.59733 161.594 9.6C161.594 10.0907 161.78 10.48 162.154 10.768C162.527 11.0453 163.05 11.184 163.722 11.184ZM170.615 3.584H171.751V12H170.615V3.584ZM171.191 1.744C170.957 1.744 170.759 1.664 170.599 1.504C170.439 1.344 170.359 1.152 170.359 0.927999C170.359 0.714666 170.439 0.528 170.599 0.367999C170.759 0.207999 170.957 0.127999 171.191 0.127999C171.426 0.127999 171.623 0.207999 171.783 0.367999C171.943 0.517332 172.023 0.698666 172.023 0.912C172.023 1.14667 171.943 1.344 171.783 1.504C171.623 1.664 171.426 1.744 171.191 1.744ZM174.912 0.127999H176.048V12H174.912V0.127999ZM179.321 12.08C179.086 12.08 178.884 11.9947 178.713 11.824C178.553 11.6533 178.473 11.4453 178.473 11.2C178.473 10.9547 178.553 10.752 178.713 10.592C178.884 10.4213 179.086 10.336 179.321 10.336C179.556 10.336 179.758 10.4213 179.929 10.592C180.1 10.752 180.185 10.9547 180.185 11.2C180.185 11.4453 180.1 11.6533 179.929 11.824C179.758 11.9947 179.556 12.08 179.321 12.08ZM185.853 12.08C185.021 12.08 184.275 11.8987 183.613 11.536C182.963 11.1733 182.451 10.6667 182.077 10.016C181.704 9.35467 181.517 8.61333 181.517 7.792C181.517 6.97067 181.704 6.23467 182.077 5.584C182.451 4.93333 182.963 4.42667 183.613 4.064C184.275 3.70133 185.021 3.52 185.853 3.52C186.579 3.52 187.224 3.664 187.789 3.952C188.365 4.22933 188.819 4.64 189.149 5.184L188.301 5.76C188.024 5.344 187.672 5.03467 187.245 4.832C186.819 4.61867 186.355 4.512 185.853 4.512C185.245 4.512 184.696 4.65067 184.205 4.928C183.725 5.19467 183.347 5.57867 183.069 6.08C182.803 6.58133 182.669 7.152 182.669 7.792C182.669 8.44267 182.803 9.01867 183.069 9.52C183.347 10.0107 183.725 10.3947 184.205 10.672C184.696 10.9387 185.245 11.072 185.853 11.072C186.355 11.072 186.819 10.9707 187.245 10.768C187.672 10.5653 188.024 10.256 188.301 9.84L189.149 10.416C188.819 10.96 188.365 11.376 187.789 11.664C187.213 11.9413 186.568 12.08 185.853 12.08ZM194.68 12.08C193.87 12.08 193.139 11.8987 192.488 11.536C191.838 11.1627 191.326 10.6507 190.952 10C190.579 9.34933 190.392 8.61333 190.392 7.792C190.392 6.97067 190.579 6.23467 190.952 5.584C191.326 4.93333 191.838 4.42667 192.488 4.064C193.139 3.70133 193.87 3.52 194.68 3.52C195.491 3.52 196.222 3.70133 196.872 4.064C197.523 4.42667 198.03 4.93333 198.392 5.584C198.766 6.23467 198.952 6.97067 198.952 7.792C198.952 8.61333 198.766 9.34933 198.392 10C198.03 10.6507 197.523 11.1627 196.872 11.536C196.222 11.8987 195.491 12.08 194.68 12.08ZM194.68 11.072C195.278 11.072 195.811 10.9387 196.28 10.672C196.76 10.3947 197.134 10.0053 197.4 9.504C197.667 9.00267 197.8 8.432 197.8 7.792C197.8 7.152 197.667 6.58133 197.4 6.08C197.134 5.57867 196.76 5.19467 196.28 4.928C195.811 4.65067 195.278 4.512 194.68 4.512C194.083 4.512 193.544 4.65067 193.064 4.928C192.595 5.19467 192.222 5.57867 191.944 6.08C191.678 6.58133 191.544 7.152 191.544 7.792C191.544 8.432 191.678 9.00267 191.944 9.504C192.222 10.0053 192.595 10.3947 193.064 10.672C193.544 10.9387 194.083 11.072 194.68 11.072ZM211.768 3.52C212.824 3.52 213.65 3.824 214.248 4.432C214.856 5.04 215.16 5.936 215.16 7.12V12H214.024V7.232C214.024 6.35733 213.81 5.69067 213.384 5.232C212.968 4.77333 212.376 4.544 211.608 4.544C210.733 4.544 210.045 4.816 209.544 5.36C209.042 5.89333 208.792 6.63467 208.792 7.584V12H207.656V7.232C207.656 6.35733 207.442 5.69067 207.016 5.232C206.6 4.77333 206.002 4.544 205.224 4.544C204.36 4.544 203.672 4.816 203.16 5.36C202.658 5.89333 202.408 6.63467 202.408 7.584V12H201.272V3.584H202.36V5.12C202.658 4.608 203.074 4.21333 203.608 3.936C204.141 3.65867 204.754 3.52 205.448 3.52C206.152 3.52 206.76 3.66933 207.272 3.968C207.794 4.26667 208.184 4.70933 208.44 5.296C208.749 4.74133 209.192 4.30933 209.768 4C210.354 3.68 211.021 3.52 211.768 3.52Z" fill="#FBFBFB"/>
</svg>
