<svg width="34px" height="34px" fill="none" xmlns="http://www.w3.org/2000/svg" viewBox="23 23 34 34"> <rect x="23" y="51" width="6" height="6" rx="1" fill="#5DD9C1"></rect> <rect x="23" y="44" width="6" height="6" rx="1" fill="#5DD9C1"></rect> <rect x="23" y="37" width="6" height="6" rx="1" fill="#5DD9C1"></rect> <rect x="23" y="30" width="6" height="6" rx="1" fill="#5DD9C1"></rect> <rect x="23" y="23" width="6" height="6" rx="1" fill="#5DD9C1"></rect> <rect x="30" y="30" width="6" height="6" rx="1" fill="#FBFBFB"></rect> <rect x="44" y="30" width="6" height="6" rx="1" fill="#FBFBFB"></rect> <rect x="51" y="30" width="6" height="6" rx="1" fill="#FBFBFB"></rect> <rect x="30" y="23" width="6" height="6" rx="1" fill="#B7B7B7"></rect> <rect x="37" y="23" width="6" height="6" rx="1" fill="#B7B7B7"></rect> <rect x="44" y="23" width="6" height="6" rx="1" fill="#B7B7B7"></rect> <rect x="51" y="23" width="6" height="6" rx="1" fill="#5DD9C1"></rect> <rect x="37" y="37" width="6" height="6" rx="1" fill="#5DD9C1"></rect> <rect x="30" y="51" width="6" height="6" rx="1" fill="#B7B7B7"></rect> <rect x="51" y="51" width="6" height="6" rx="1" fill="#5DD9C1"></rect> <rect x="44" y="37" width="6" height="6" rx="1" fill="#B7B7B7"></rect> <rect x="51" y="37" width="6" height="6" rx="1" fill="#5DD9C1"></rect> <rect x="51" y="44" width="6" height="6" rx="1" fill="#5DD9C1"></rect> <rect x="44" y="51" width="6" height="6" rx="1" fill="#B7B7B7"></rect> <rect x="37" y="51" width="6" height="6" rx="1" fill="#B7B7B7"></rect> </svg>
