<svg width="106" height="16" viewBox="0 0 106 16" fill="none" xmlns="http://www.w3.org/2000/svg">
<path d="M2.52 15.104C1.92267 14.1227 1.464 12.9973 1.144 11.728C0.824 10.448 0.664 9.07733 0.664 7.616C0.664 6.15467 0.824 4.784 1.144 3.504C1.464 2.21333 1.92267 1.088 2.52 0.127999H3.608C2.97867 1.20533 2.51467 2.36267 2.216 3.6C1.928 4.83733 1.784 6.176 1.784 7.616C1.784 9.056 1.928 10.3947 2.216 11.632C2.51467 12.8693 2.97867 14.0267 3.608 15.104H2.52ZM8.58563 0.704C10.0683 0.704 11.2043 1.19467 11.9936 2.176C12.783 3.14667 13.1776 4.52267 13.1776 6.304C13.1776 7.552 12.9643 8.608 12.5376 9.472C12.111 10.336 11.5136 10.992 10.7456 11.44C9.97763 11.8773 9.08163 12.096 8.05763 12.096C6.94829 12.096 6.06296 11.8933 5.40163 11.488L5.86563 10.56C6.39896 10.912 7.12429 11.088 8.04163 11.088C9.27896 11.088 10.2496 10.6987 10.9536 9.92C11.6576 9.13067 12.0096 7.98933 12.0096 6.496C12.0096 6.21867 11.9936 5.91467 11.9616 5.584C11.6843 6.192 11.2416 6.66667 10.6336 7.008C10.0256 7.33867 9.32696 7.504 8.53763 7.504C7.80163 7.504 7.14563 7.36533 6.56963 7.088C6.00429 6.81067 5.56163 6.42133 5.24163 5.92C4.92163 5.408 4.76163 4.816 4.76163 4.144C4.76163 3.46133 4.92696 2.85867 5.25763 2.336C5.58829 1.81333 6.04163 1.41333 6.61762 1.136C7.20429 0.848 7.86029 0.704 8.58563 0.704ZM8.71363 6.528C9.27896 6.528 9.77496 6.42133 10.2016 6.208C10.639 5.99467 10.9803 5.70133 11.2256 5.328C11.471 4.95467 11.5936 4.53867 11.5936 4.08C11.5936 3.65333 11.4763 3.25867 11.2416 2.896C11.0176 2.53333 10.6816 2.24 10.2336 2.016C9.78563 1.792 9.25229 1.68 8.63363 1.68C7.82296 1.68 7.16163 1.904 6.64963 2.352C6.14829 2.78933 5.89763 3.376 5.89763 4.112C5.89763 4.848 6.14829 5.43467 6.64963 5.872C7.16163 6.30933 7.84963 6.528 8.71363 6.528ZM17.9204 0.799999V12H16.7684V1.824H14.1284V0.799999H17.9204ZM30.1176 9.056H27.8776V12H26.7256V9.056H20.4056V8.224L26.3416 0.799999H27.6216L21.8936 8.032H26.7576V5.44H27.8776V8.032H30.1176V9.056ZM30.9838 15.104C31.6131 14.0267 32.0771 12.8747 32.3758 11.648C32.6744 10.4107 32.8238 9.06667 32.8238 7.616C32.8238 6.16533 32.6744 4.82667 32.3758 3.6C32.0771 2.36267 31.6131 1.20533 30.9838 0.127999H32.0718C32.6691 1.088 33.1278 2.21333 33.4478 3.504C33.7784 4.784 33.9438 6.15467 33.9438 7.616C33.9438 9.07733 33.7838 10.448 33.4638 11.728C33.1438 13.008 32.6798 14.1333 32.0718 15.104H30.9838ZM45.2689 5.296C46.0049 5.296 46.6555 5.43467 47.2209 5.712C47.7969 5.98933 48.2449 6.384 48.5649 6.896C48.8849 7.39733 49.0449 7.984 49.0449 8.656C49.0449 9.33867 48.8795 9.94133 48.5489 10.464C48.2182 10.9867 47.7595 11.392 47.1729 11.68C46.5969 11.9573 45.9462 12.096 45.2209 12.096C43.7382 12.096 42.6022 11.6107 41.8129 10.64C41.0235 9.65867 40.6289 8.27733 40.6289 6.496C40.6289 5.248 40.8422 4.192 41.2689 3.328C41.6955 2.464 42.2929 1.81333 43.0609 1.376C43.8289 0.927999 44.7249 0.704 45.7489 0.704C46.8582 0.704 47.7435 0.906666 48.4049 1.312L47.9409 2.24C47.4075 1.888 46.6822 1.712 45.7649 1.712C44.5275 1.712 43.5569 2.10667 42.8529 2.896C42.1489 3.67467 41.7969 4.81067 41.7969 6.304C41.7969 6.57067 41.8129 6.87467 41.8449 7.216C42.1222 6.608 42.5649 6.13867 43.1729 5.808C43.7809 5.46667 44.4795 5.296 45.2689 5.296ZM45.1729 11.12C45.9835 11.12 46.6395 10.9013 47.1409 10.464C47.6529 10.016 47.9089 9.424 47.9089 8.688C47.9089 7.952 47.6529 7.36533 47.1409 6.928C46.6395 6.49067 45.9569 6.272 45.0929 6.272C44.5275 6.272 44.0262 6.37867 43.5889 6.592C43.1622 6.80533 42.8262 7.09867 42.5809 7.472C42.3355 7.84533 42.2129 8.26133 42.2129 8.72C42.2129 9.14667 42.3249 9.54133 42.5489 9.904C42.7835 10.2667 43.1249 10.56 43.5729 10.784C44.0209 11.008 44.5542 11.12 45.1729 11.12ZM53.4829 0.799999V12H52.3309V1.824H49.6909V0.799999H53.4829ZM60.6241 12.096C59.7601 12.096 58.9868 11.8667 58.3041 11.408C57.6321 10.9493 57.1041 10.2933 56.7201 9.44C56.3468 8.576 56.1601 7.56267 56.1601 6.4C56.1601 5.23733 56.3468 4.22933 56.7201 3.376C57.1041 2.512 57.6321 1.85067 58.3041 1.392C58.9868 0.933333 59.7601 0.704 60.6241 0.704C61.4881 0.704 62.2561 0.933333 62.9281 1.392C63.6108 1.85067 64.1441 2.512 64.5281 3.376C64.9121 4.22933 65.1041 5.23733 65.1041 6.4C65.1041 7.56267 64.9121 8.576 64.5281 9.44C64.1441 10.2933 63.6108 10.9493 62.9281 11.408C62.2561 11.8667 61.4881 12.096 60.6241 12.096ZM60.6241 11.04C61.2748 11.04 61.8455 10.8587 62.3361 10.496C62.8375 10.1333 63.2268 9.60533 63.5041 8.912C63.7815 8.21867 63.9201 7.38133 63.9201 6.4C63.9201 5.41867 63.7815 4.58133 63.5041 3.888C63.2268 3.19467 62.8375 2.66667 62.3361 2.304C61.8455 1.94133 61.2748 1.76 60.6241 1.76C59.9735 1.76 59.3975 1.94133 58.8961 2.304C58.4055 2.66667 58.0215 3.19467 57.7441 3.888C57.4668 4.58133 57.3281 5.41867 57.3281 6.4C57.3281 7.38133 57.4668 8.21867 57.7441 8.912C58.0215 9.60533 58.4055 10.1333 58.8961 10.496C59.3975 10.8587 59.9735 11.04 60.6241 11.04ZM67.0069 7.168H71.1989V8.16H67.0069V7.168ZM79.4043 6.128C80.1083 6.36267 80.6469 6.71467 81.0203 7.184C81.4043 7.65333 81.5963 8.21867 81.5963 8.88C81.5963 9.53067 81.4203 10.1013 81.0683 10.592C80.7163 11.072 80.2096 11.4453 79.5483 11.712C78.8976 11.968 78.1296 12.096 77.2443 12.096C75.9003 12.096 74.8443 11.808 74.0763 11.232C73.3083 10.656 72.9243 9.872 72.9243 8.88C72.9243 8.208 73.1056 7.64267 73.4683 7.184C73.8416 6.71467 74.3803 6.36267 75.0843 6.128C74.5083 5.904 74.0709 5.584 73.7723 5.168C73.4736 4.74133 73.3243 4.24 73.3243 3.664C73.3243 2.75733 73.6763 2.03733 74.3803 1.504C75.0949 0.970666 76.0496 0.704 77.2443 0.704C78.0336 0.704 78.7216 0.826666 79.3083 1.072C79.9056 1.30667 80.3696 1.648 80.7003 2.096C81.0309 2.544 81.1962 3.06667 81.1962 3.664C81.1962 4.24 81.0416 4.74133 80.7323 5.168C80.4229 5.584 79.9803 5.904 79.4043 6.128ZM74.4763 3.696C74.4763 4.31467 74.7216 4.80533 75.2123 5.168C75.7029 5.53067 76.3803 5.712 77.2443 5.712C78.1083 5.712 78.7856 5.53067 79.2763 5.168C79.7776 4.80533 80.0283 4.32 80.0283 3.712C80.0283 3.08267 79.7723 2.58667 79.2603 2.224C78.7589 1.86133 78.0869 1.68 77.2443 1.68C76.3909 1.68 75.7136 1.86133 75.2123 2.224C74.7216 2.58667 74.4763 3.07733 74.4763 3.696ZM77.2443 11.12C78.2363 11.12 79.0096 10.9173 79.5643 10.512C80.1296 10.1067 80.4123 9.55733 80.4123 8.864C80.4123 8.17067 80.1296 7.62667 79.5643 7.232C79.0096 6.82667 78.2363 6.624 77.2443 6.624C76.2629 6.624 75.4896 6.82667 74.9243 7.232C74.3696 7.62667 74.0923 8.17067 74.0923 8.864C74.0923 9.568 74.3696 10.1227 74.9243 10.528C75.4789 10.9227 76.2523 11.12 77.2443 11.12ZM87.8314 5.296C88.5674 5.296 89.218 5.43467 89.7834 5.712C90.3594 5.98933 90.8074 6.384 91.1274 6.896C91.4474 7.39733 91.6074 7.984 91.6074 8.656C91.6074 9.33867 91.442 9.94133 91.1114 10.464C90.7807 10.9867 90.322 11.392 89.7354 11.68C89.1594 11.9573 88.5087 12.096 87.7834 12.096C86.3007 12.096 85.1647 11.6107 84.3754 10.64C83.586 9.65867 83.1914 8.27733 83.1914 6.496C83.1914 5.248 83.4047 4.192 83.8314 3.328C84.258 2.464 84.8554 1.81333 85.6234 1.376C86.3914 0.927999 87.2874 0.704 88.3114 0.704C89.4207 0.704 90.306 0.906666 90.9674 1.312L90.5034 2.24C89.97 1.888 89.2447 1.712 88.3274 1.712C87.09 1.712 86.1194 2.10667 85.4154 2.896C84.7114 3.67467 84.3594 4.81067 84.3594 6.304C84.3594 6.57067 84.3754 6.87467 84.4074 7.216C84.6847 6.608 85.1274 6.13867 85.7354 5.808C86.3434 5.46667 87.042 5.296 87.8314 5.296ZM87.7354 11.12C88.546 11.12 89.202 10.9013 89.7034 10.464C90.2154 10.016 90.4714 9.424 90.4714 8.688C90.4714 7.952 90.2154 7.36533 89.7034 6.928C89.202 6.49067 88.5194 6.272 87.6554 6.272C87.09 6.272 86.5887 6.37867 86.1514 6.592C85.7247 6.80533 85.3887 7.09867 85.1434 7.472C84.898 7.84533 84.7754 8.26133 84.7754 8.72C84.7754 9.14667 84.8874 9.54133 85.1114 9.904C85.346 10.2667 85.6874 10.56 86.1354 10.784C86.5834 11.008 87.1167 11.12 87.7354 11.12ZM96.7494 5.6C97.9227 5.664 98.8134 5.984 99.4214 6.56C100.04 7.12533 100.349 7.86667 100.349 8.784C100.349 9.424 100.195 9.99467 99.8854 10.496C99.576 10.9867 99.1174 11.376 98.5094 11.664C97.9014 11.952 97.16 12.096 96.2854 12.096C95.4747 12.096 94.7067 11.968 93.9814 11.712C93.2667 11.4453 92.6907 11.0933 92.2534 10.656L92.8134 9.744C93.1867 10.128 93.6827 10.4427 94.3014 10.688C94.92 10.9227 95.5814 11.04 96.2854 11.04C97.2027 11.04 97.912 10.8427 98.4134 10.448C98.9147 10.0427 99.1654 9.488 99.1654 8.784C99.1654 8.09067 98.9147 7.54667 98.4134 7.152C97.912 6.75733 97.1547 6.56 96.1414 6.56H95.3414V5.712L98.4454 1.824H92.7174V0.799999H99.9174V1.616L96.7494 5.6ZM105.077 0.799999V12H103.925V1.824H101.285V0.799999H105.077Z" fill="#FBFBFB"/>
</svg>
