<svg width="22" height="14" viewBox="0 0 22 14" xmlns="http://www.w3.org/2000/svg">
<path fill-rule="evenodd" clip-rule="evenodd" d="M5.53518 0H20C21.1046 0 22 0.89543 22 2V12C22 13.1046 21.1046 14 20 14H5.53518C4.86648 14 4.24201 13.6658 3.87108 13.1094L0.16795 7.5547C-0.0559832 7.2188 -0.0559832 6.7812 0.16795 6.4453L3.87108 0.8906C4.24201 0.334202 4.86648 0 5.53518 0ZM2.20185 6.99993L5.53518 11.9999H20V1.99993H5.53518L2.20185 6.99993ZM6.99998 7.00005C6.99998 7.55233 6.55227 8.00005 5.99998 8.00005C5.4477 8.00005 4.99998 7.55233 4.99998 7.00005C4.99998 6.44776 5.4477 6.00005 5.99998 6.00005C6.55227 6.00005 6.99998 6.44776 6.99998 7.00005Z" fill="#B7B7B7"/>
</svg>
